<mxfile host="Electron" agent="Mozilla/5.0 (Windows NT 10.0; Win64; x64) AppleWebKit/537.36 (KHTML, like Gecko) draw.io/27.0.9 Chrome/134.0.6998.205 Electron/35.4.0 Safari/537.36" version="27.0.9">
  <diagram name="Page-1" id="zEJiayM8TABY-mLwe_kJ">
    <mxGraphModel dx="1042" dy="626" grid="1" gridSize="10" guides="1" tooltips="1" connect="1" arrows="1" fold="1" page="1" pageScale="1" pageWidth="1169" pageHeight="827" math="0" shadow="0">
      <root>
        <mxCell id="0" />
        <mxCell id="1" parent="0" />
        <mxCell id="UqUYDscWZaWJvlS4BCto-1" value="crm_cust_info" style="swimlane;fontStyle=1;childLayout=stackLayout;horizontal=1;startSize=30;horizontalStack=0;resizeParent=1;resizeParentMax=0;resizeLast=0;collapsible=1;marginBottom=0;whiteSpace=wrap;html=1;fillColor=#dae8fc;strokeColor=#6c8ebf;" parent="1" vertex="1">
          <mxGeometry x="555" y="430" width="120" height="90" as="geometry" />
        </mxCell>
        <mxCell id="UqUYDscWZaWJvlS4BCto-2" value="cst_id" style="text;strokeColor=none;fillColor=none;align=left;verticalAlign=middle;spacingLeft=4;spacingRight=4;overflow=hidden;points=[[0,0.5],[1,0.5]];portConstraint=eastwest;rotatable=0;whiteSpace=wrap;html=1;fontStyle=1" parent="UqUYDscWZaWJvlS4BCto-1" vertex="1">
          <mxGeometry y="30" width="120" height="30" as="geometry" />
        </mxCell>
        <mxCell id="UqUYDscWZaWJvlS4BCto-20" value="cust_key" style="text;strokeColor=none;fillColor=none;align=left;verticalAlign=middle;spacingLeft=4;spacingRight=4;overflow=hidden;points=[[0,0.5],[1,0.5]];portConstraint=eastwest;rotatable=0;whiteSpace=wrap;html=1;fontStyle=1" parent="UqUYDscWZaWJvlS4BCto-1" vertex="1">
          <mxGeometry y="60" width="120" height="30" as="geometry" />
        </mxCell>
        <mxCell id="UqUYDscWZaWJvlS4BCto-5" value="Customer information" style="rounded=1;whiteSpace=wrap;html=1;fillColor=none;strokeColor=none;fontStyle=1" parent="1" vertex="1">
          <mxGeometry x="550" y="400" width="130" height="30" as="geometry" />
        </mxCell>
        <mxCell id="UqUYDscWZaWJvlS4BCto-6" value="crm_prd_info" style="swimlane;fontStyle=1;childLayout=stackLayout;horizontal=1;startSize=30;horizontalStack=0;resizeParent=1;resizeParentMax=0;resizeLast=0;collapsible=1;marginBottom=0;whiteSpace=wrap;html=1;fillColor=#dae8fc;strokeColor=#6c8ebf;" parent="1" vertex="1">
          <mxGeometry x="555" y="280" width="120" height="60" as="geometry" />
        </mxCell>
        <mxCell id="UqUYDscWZaWJvlS4BCto-7" value="prd&lt;span style=&quot;background-color: transparent; color: light-dark(rgb(0, 0, 0), rgb(255, 255, 255));&quot;&gt;_key&lt;/span&gt;" style="text;strokeColor=none;fillColor=none;align=left;verticalAlign=middle;spacingLeft=4;spacingRight=4;overflow=hidden;points=[[0,0.5],[1,0.5]];portConstraint=eastwest;rotatable=0;whiteSpace=wrap;html=1;fontStyle=1" parent="UqUYDscWZaWJvlS4BCto-6" vertex="1">
          <mxGeometry y="30" width="120" height="30" as="geometry" />
        </mxCell>
        <mxCell id="UqUYDscWZaWJvlS4BCto-8" value="Product information" style="rounded=1;whiteSpace=wrap;html=1;fillColor=none;strokeColor=none;fontStyle=1" parent="1" vertex="1">
          <mxGeometry x="555" y="250" width="120" height="30" as="geometry" />
        </mxCell>
        <mxCell id="UqUYDscWZaWJvlS4BCto-9" value="crm_sales_details" style="swimlane;fontStyle=1;childLayout=stackLayout;horizontal=1;startSize=30;horizontalStack=0;resizeParent=1;resizeParentMax=0;resizeLast=0;collapsible=1;marginBottom=0;whiteSpace=wrap;html=1;fillColor=#dae8fc;strokeColor=#6c8ebf;" parent="1" vertex="1">
          <mxGeometry x="774" y="310" width="120" height="90" as="geometry" />
        </mxCell>
        <mxCell id="UqUYDscWZaWJvlS4BCto-10" value="prd_key" style="text;strokeColor=none;fillColor=none;align=left;verticalAlign=middle;spacingLeft=4;spacingRight=4;overflow=hidden;points=[[0,0.5],[1,0.5]];portConstraint=eastwest;rotatable=0;whiteSpace=wrap;html=1;fontStyle=1" parent="UqUYDscWZaWJvlS4BCto-9" vertex="1">
          <mxGeometry y="30" width="120" height="30" as="geometry" />
        </mxCell>
        <mxCell id="UqUYDscWZaWJvlS4BCto-13" value="cust_id" style="text;strokeColor=none;fillColor=none;align=left;verticalAlign=middle;spacingLeft=4;spacingRight=4;overflow=hidden;points=[[0,0.5],[1,0.5]];portConstraint=eastwest;rotatable=0;whiteSpace=wrap;html=1;fontStyle=1" parent="UqUYDscWZaWJvlS4BCto-9" vertex="1">
          <mxGeometry y="60" width="120" height="30" as="geometry" />
        </mxCell>
        <mxCell id="UqUYDscWZaWJvlS4BCto-11" value="Transactional records about Sales &amp;amp; Orders" style="rounded=1;whiteSpace=wrap;html=1;fillColor=none;strokeColor=none;fontStyle=1" parent="1" vertex="1">
          <mxGeometry x="764" y="280" width="140" height="30" as="geometry" />
        </mxCell>
        <mxCell id="UqUYDscWZaWJvlS4BCto-14" style="edgeStyle=orthogonalEdgeStyle;rounded=0;orthogonalLoop=1;jettySize=auto;html=1;exitX=1;exitY=0.5;exitDx=0;exitDy=0;entryX=0;entryY=0.5;entryDx=0;entryDy=0;" parent="1" source="UqUYDscWZaWJvlS4BCto-2" target="UqUYDscWZaWJvlS4BCto-13" edge="1">
          <mxGeometry relative="1" as="geometry" />
        </mxCell>
        <mxCell id="UqUYDscWZaWJvlS4BCto-15" style="edgeStyle=orthogonalEdgeStyle;rounded=0;orthogonalLoop=1;jettySize=auto;html=1;exitX=1;exitY=0.5;exitDx=0;exitDy=0;entryX=0;entryY=0.5;entryDx=0;entryDy=0;" parent="1" source="UqUYDscWZaWJvlS4BCto-7" target="UqUYDscWZaWJvlS4BCto-10" edge="1">
          <mxGeometry relative="1" as="geometry" />
        </mxCell>
        <mxCell id="UqUYDscWZaWJvlS4BCto-17" value="erp_cust_az12" style="swimlane;fontStyle=1;childLayout=stackLayout;horizontal=1;startSize=30;horizontalStack=0;resizeParent=1;resizeParentMax=0;resizeLast=0;collapsible=1;marginBottom=0;whiteSpace=wrap;html=1;fillColor=#fff2cc;strokeColor=#d6b656;" parent="1" vertex="1">
          <mxGeometry x="238" y="379" width="120" height="60" as="geometry" />
        </mxCell>
        <mxCell id="UqUYDscWZaWJvlS4BCto-18" value="CID" style="text;strokeColor=none;fillColor=none;align=left;verticalAlign=middle;spacingLeft=4;spacingRight=4;overflow=hidden;points=[[0,0.5],[1,0.5]];portConstraint=eastwest;rotatable=0;whiteSpace=wrap;html=1;fontStyle=1" parent="UqUYDscWZaWJvlS4BCto-17" vertex="1">
          <mxGeometry y="30" width="120" height="30" as="geometry" />
        </mxCell>
        <mxCell id="UqUYDscWZaWJvlS4BCto-19" value="Additional Customer Information" style="rounded=1;whiteSpace=wrap;html=1;fillColor=none;strokeColor=none;fontStyle=1" parent="1" vertex="1">
          <mxGeometry x="238" y="349" width="120" height="30" as="geometry" />
        </mxCell>
        <mxCell id="UqUYDscWZaWJvlS4BCto-22" value="" style="edgeStyle=orthogonalEdgeStyle;rounded=0;orthogonalLoop=1;jettySize=auto;html=1;" parent="1" source="UqUYDscWZaWJvlS4BCto-20" target="UqUYDscWZaWJvlS4BCto-18" edge="1">
          <mxGeometry relative="1" as="geometry" />
        </mxCell>
        <mxCell id="UqUYDscWZaWJvlS4BCto-23" value="erp_loc_a101" style="swimlane;fontStyle=1;childLayout=stackLayout;horizontal=1;startSize=30;horizontalStack=0;resizeParent=1;resizeParentMax=0;resizeLast=0;collapsible=1;marginBottom=0;whiteSpace=wrap;html=1;fillColor=#fff2cc;strokeColor=#d6b656;" parent="1" vertex="1">
          <mxGeometry x="238" y="480" width="120" height="60" as="geometry" />
        </mxCell>
        <mxCell id="UqUYDscWZaWJvlS4BCto-24" value="CID" style="text;strokeColor=none;fillColor=none;align=left;verticalAlign=middle;spacingLeft=4;spacingRight=4;overflow=hidden;points=[[0,0.5],[1,0.5]];portConstraint=eastwest;rotatable=0;whiteSpace=wrap;html=1;fontStyle=1" parent="UqUYDscWZaWJvlS4BCto-23" vertex="1">
          <mxGeometry y="30" width="120" height="30" as="geometry" />
        </mxCell>
        <mxCell id="UqUYDscWZaWJvlS4BCto-25" value="Location of the Customers" style="rounded=1;whiteSpace=wrap;html=1;fillColor=none;strokeColor=none;fontStyle=1" parent="1" vertex="1">
          <mxGeometry x="238" y="450" width="120" height="30" as="geometry" />
        </mxCell>
        <mxCell id="UqUYDscWZaWJvlS4BCto-26" style="edgeStyle=orthogonalEdgeStyle;rounded=0;orthogonalLoop=1;jettySize=auto;html=1;exitX=0;exitY=0.5;exitDx=0;exitDy=0;entryX=1;entryY=0.5;entryDx=0;entryDy=0;" parent="1" source="UqUYDscWZaWJvlS4BCto-20" target="UqUYDscWZaWJvlS4BCto-24" edge="1">
          <mxGeometry relative="1" as="geometry" />
        </mxCell>
        <mxCell id="UqUYDscWZaWJvlS4BCto-28" value="erp_px_cat_g1v2" style="swimlane;fontStyle=1;childLayout=stackLayout;horizontal=1;startSize=30;horizontalStack=0;resizeParent=1;resizeParentMax=0;resizeLast=0;collapsible=1;marginBottom=0;whiteSpace=wrap;html=1;fillColor=#fff2cc;strokeColor=#d6b656;" parent="1" vertex="1">
          <mxGeometry x="238" y="270" width="120" height="60" as="geometry" />
        </mxCell>
        <mxCell id="UqUYDscWZaWJvlS4BCto-29" value="ID" style="text;strokeColor=none;fillColor=none;align=left;verticalAlign=middle;spacingLeft=4;spacingRight=4;overflow=hidden;points=[[0,0.5],[1,0.5]];portConstraint=eastwest;rotatable=0;whiteSpace=wrap;html=1;fontStyle=1" parent="UqUYDscWZaWJvlS4BCto-28" vertex="1">
          <mxGeometry y="30" width="120" height="30" as="geometry" />
        </mxCell>
        <mxCell id="UqUYDscWZaWJvlS4BCto-30" value="Additional Product Information" style="rounded=1;whiteSpace=wrap;html=1;fillColor=none;strokeColor=none;fontStyle=1" parent="1" vertex="1">
          <mxGeometry x="238" y="240" width="120" height="30" as="geometry" />
        </mxCell>
        <mxCell id="UqUYDscWZaWJvlS4BCto-32" style="edgeStyle=orthogonalEdgeStyle;rounded=0;orthogonalLoop=1;jettySize=auto;html=1;exitX=0;exitY=0.5;exitDx=0;exitDy=0;entryX=1;entryY=0.5;entryDx=0;entryDy=0;" parent="1" source="UqUYDscWZaWJvlS4BCto-7" target="UqUYDscWZaWJvlS4BCto-29" edge="1">
          <mxGeometry relative="1" as="geometry" />
        </mxCell>
        <mxCell id="UqUYDscWZaWJvlS4BCto-36" value="" style="rounded=1;whiteSpace=wrap;html=1;fillColor=none;" parent="1" vertex="1">
          <mxGeometry x="80" y="220" width="423" height="330" as="geometry" />
        </mxCell>
        <mxCell id="UqUYDscWZaWJvlS4BCto-37" value="ERP" style="rounded=1;whiteSpace=wrap;html=1;fontStyle=1;fontSize=18;fillColor=#fff2cc;strokeColor=#d6b656;" parent="1" vertex="1">
          <mxGeometry x="238" y="170" width="120" height="60" as="geometry" />
        </mxCell>
        <mxCell id="UqUYDscWZaWJvlS4BCto-34" value="" style="rounded=1;whiteSpace=wrap;html=1;fillColor=none;" parent="1" vertex="1">
          <mxGeometry x="510" y="220" width="440" height="330" as="geometry" />
        </mxCell>
        <mxCell id="UqUYDscWZaWJvlS4BCto-35" value="CRM" style="rounded=1;whiteSpace=wrap;html=1;fontStyle=1;fontSize=18;fillColor=#dae8fc;strokeColor=#6c8ebf;" parent="1" vertex="1">
          <mxGeometry x="670" y="170" width="120" height="60" as="geometry" />
        </mxCell>
        <mxCell id="RLc-lLwlx3kzEWmRMood-1" value="Products" style="text;html=1;strokeColor=#b85450;fillColor=#f8cecc;align=center;verticalAlign=middle;whiteSpace=wrap;overflow=hidden;fontStyle=1;fontSize=13;" vertex="1" parent="1">
          <mxGeometry x="238" y="320" width="120" height="20" as="geometry" />
        </mxCell>
        <mxCell id="RLc-lLwlx3kzEWmRMood-2" value="Products" style="text;html=1;strokeColor=#b85450;fillColor=#f8cecc;align=center;verticalAlign=middle;whiteSpace=wrap;overflow=hidden;fontStyle=1;fontSize=13;" vertex="1" parent="1">
          <mxGeometry x="555" y="330" width="120" height="20" as="geometry" />
        </mxCell>
        <mxCell id="RLc-lLwlx3kzEWmRMood-3" value="Customers" style="text;html=1;strokeColor=#82b366;fillColor=#d5e8d4;align=center;verticalAlign=middle;whiteSpace=wrap;overflow=hidden;fontStyle=1;fontSize=13;gradientColor=#97d077;" vertex="1" parent="1">
          <mxGeometry x="238" y="430" width="120" height="20" as="geometry" />
        </mxCell>
        <mxCell id="RLc-lLwlx3kzEWmRMood-6" value="Customers" style="text;html=1;strokeColor=#82b366;fillColor=#d5e8d4;align=center;verticalAlign=middle;whiteSpace=wrap;overflow=hidden;fontStyle=1;fontSize=13;gradientColor=#97d077;" vertex="1" parent="1">
          <mxGeometry x="238" y="530" width="120" height="20" as="geometry" />
        </mxCell>
        <mxCell id="RLc-lLwlx3kzEWmRMood-7" value="Customers" style="text;html=1;strokeColor=#82b366;fillColor=#d5e8d4;align=center;verticalAlign=middle;whiteSpace=wrap;overflow=hidden;fontStyle=1;fontSize=13;gradientColor=#97d077;" vertex="1" parent="1">
          <mxGeometry x="555" y="520" width="120" height="20" as="geometry" />
        </mxCell>
        <mxCell id="RLc-lLwlx3kzEWmRMood-8" value="Sales" style="text;html=1;strokeColor=#d6b656;fillColor=#fff2cc;align=center;verticalAlign=middle;whiteSpace=wrap;overflow=hidden;fontStyle=1;fontSize=13;gradientColor=#ffd966;" vertex="1" parent="1">
          <mxGeometry x="774" y="394" width="120" height="20" as="geometry" />
        </mxCell>
      </root>
    </mxGraphModel>
  </diagram>
</mxfile>
